<svg xmlns="http://www.w3.org/2000/svg" width="229.777" height="53.971" viewBox="0 0 229.777 53.971">
  <g id="Group_376" data-name="Group 376" transform="translate(-302.827 -142.469)">
    <g id="Group_373" data-name="Group 373" transform="translate(302.827 142.469)">
      <path id="Path_484" data-name="Path 484" d="M347.938,224.218a2.54,2.54,0,0,0-1.89.866,4.033,4.033,0,0,0-1.556-.8,2.411,2.411,0,0,0-2.17.582c-.107-1.133,2.189-2.6,3.639-.819.141-.561,1.124-1.013,1.918-.935a15.563,15.563,0,0,0-1.087-4.592,2.416,2.416,0,0,0-1.636,1.062,3.846,3.846,0,0,0-1.575-.552,2.289,2.289,0,0,0-1.969.834c-.254-1.059,1.718-2.737,3.322-1.25a1.657,1.657,0,0,1,1.407-1.1,17.878,17.878,0,0,0-2.868-4.114,2.228,2.228,0,0,0-.918,1.043,2.287,2.287,0,0,0-3.017.8c-.389-.874,1.041-2.638,2.669-1.6a1.144,1.144,0,0,1,.591-.926,18.9,18.9,0,0,0-3.611-2.72,2.482,2.482,0,0,0-.366.915,2,2,0,0,0-2.384,1.194,1.114,1.114,0,0,1,0-1.278,1.518,1.518,0,0,1,1.683-.7.843.843,0,0,1,.082-.671c-7.615-3.913-16.9-2.94-19.3-2.708a10.337,10.337,0,0,0-1.557-4.488,2.487,2.487,0,0,1-1.446.71,10.552,10.552,0,0,1-2.2-.03,4.732,4.732,0,0,1-.987,3.044c-1.547,1.757-5.958,3.667-5.958,3.667s3.6,4.049,11.219-.612c7.776-.305,16.6,3.056,19.3,10.162,3.645,9.565-1.046,16.971-4.221,20.578-.67.906.038,2.421,1.912,2.1a21.623,21.623,0,0,0,8.05-4.547,6.319,6.319,0,0,0,2.693-4.192c.267-2.33-2.651-2.725-4.411-1.614,1.976-2.111,4.784-1.394,5.238.047A18.68,18.68,0,0,0,347.938,224.218Zm-7.434,11.9a.8.8,0,1,1,.793-.8A.8.8,0,0,1,340.5,236.12Z" transform="translate(-305.852 -188.552)" fill="#39008f"/>
      <path id="Path_485" data-name="Path 485" d="M508.116,324.669c-.051-1.086,0-7.177,0-7.64,0-2.827-1.148-2.359-1.49-1.3-.535,1.242-1.251,3.819-1.8,5.272a15,15,0,0,1-5.2,6.952c-1.027.8-.841,1.415.229,1.376,4.2-.153,5.524.1,6.418,0C507.438,329.205,508.333,329.267,508.116,324.669Zm-2.775-1.891a.682.682,0,1,1-.208.893A.65.65,0,0,1,505.34,322.777Zm-3.017,5.715a.62.62,0,1,1,.737-.545A.65.65,0,0,1,502.323,328.492Zm3.839-.9a.964.964,0,1,1-.025-1.426A1.011,1.011,0,0,1,506.162,327.594Zm.795-6.594a.443.443,0,1,1,.526-.389A.465.465,0,0,1,506.957,321Z" transform="translate(-454.002 -275.382)" fill="#39008f"/>
      <path id="Path_486" data-name="Path 486" d="M303.939,357.854c-.458-.658-1.07.127-1.1.9a2.811,2.811,0,0,0,2.009,3.18,3.394,3.394,0,0,0,3.816-.57C309.161,360.558,305.741,360.443,303.939,357.854Z" transform="translate(-302.827 -308.297)" fill="#ea687e"/>
      <g id="Group_363" data-name="Group 363" transform="translate(0.175 26.471)">
        <path id="Path_487" data-name="Path 487" d="M304.91,258.619a.659.659,0,1,1-.659-.659A.66.66,0,0,1,304.91,258.619Z" transform="translate(-303.592 -257.96)" fill="#ea687e"/>
      </g>
      <g id="Group_364" data-name="Group 364" transform="translate(0.319 16.587)">
        <path id="Path_488" data-name="Path 488" d="M306.624,216.039a1.2,1.2,0,1,1-1.2-1.2A1.2,1.2,0,0,1,306.624,216.039Z" transform="translate(-304.217 -214.835)" fill="#ea687e"/>
      </g>
      <g id="Group_365" data-name="Group 365" transform="translate(0.147 34.752)">
        <path id="Path_489" data-name="Path 489" d="M306.141,295.424a1.337,1.337,0,1,1-1.337-1.337A1.338,1.338,0,0,1,306.141,295.424Z" transform="translate(-303.467 -294.087)" fill="#ea687e"/>
      </g>
      <g id="Group_366" data-name="Group 366" transform="translate(42.206 26.844)">
        <path id="Path_490" data-name="Path 490" d="M488.65,260.426a.84.84,0,1,1-.841-.841A.841.841,0,0,1,488.65,260.426Z" transform="translate(-486.969 -259.585)" fill="#ea687e"/>
      </g>
      <g id="Group_367" data-name="Group 367" transform="translate(34.382 51.789)">
        <path id="Path_491" data-name="Path 491" d="M454.267,369.138a.716.716,0,1,1-.717-.717A.717.717,0,0,1,454.267,369.138Z" transform="translate(-452.834 -368.421)" fill="#ea687e"/>
      </g>
      <g id="Group_368" data-name="Group 368" transform="translate(1.551 23.377)">
        <path id="Path_492" data-name="Path 492" d="M311.6,245.463a1,1,0,1,1-1-1A1,1,0,0,1,311.6,245.463Z" transform="translate(-309.594 -244.46)" fill="#ea687e"/>
      </g>
      <g id="Group_369" data-name="Group 369" transform="translate(2.12 38.787)">
        <path id="Path_493" data-name="Path 493" d="M313.4,312.357a.662.662,0,1,1-.662-.663A.662.662,0,0,1,313.4,312.357Z" transform="translate(-312.078 -311.694)" fill="#ea687e"/>
      </g>
      <g id="Group_372" data-name="Group 372" transform="translate(4.718 31.335)">
        <path id="Path_494" data-name="Path 494" d="M337.344,291.312a6.01,6.01,0,0,0,3.34-5.542,5.816,5.816,0,0,0-2.78-5.164,10.76,10.76,0,0,0-9.733-.51c-3.3,1.384-4.893,3.495-4.587,4,.462.763,1.4-.082,3.486-.79,1.856-.631,3.985-.519,4.819.485a2.7,2.7,0,0,1-.194,3.723c-.934.912-3.064.8-4.843-.02-2-.921-2.846-1.86-3.385-1.149-.357.47,1,2.736,4.144,4.457A10.761,10.761,0,0,0,337.344,291.312Z" transform="translate(-323.41 -279.182)" fill="#ea687e"/>
        <g id="Group_371" data-name="Group 371" transform="translate(11.216 5.767)">
          <g id="Group_370" data-name="Group 370">
            <path id="Path_495" data-name="Path 495" d="M373.747,306.367c-.8-.042-1.432-.529-1.4-1.086s.705-.976,1.509-.934,1.431.528,1.4,1.087S374.551,306.41,373.747,306.367Z" transform="translate(-372.344 -304.343)" fill="#fff"/>
          </g>
        </g>
      </g>
      <path id="Path_496" data-name="Path 496" d="M478.114,224.56c3.323-.393,4.721-1.825,4.732-.846.018,1.614.29,2.55,1.439,2.877,2.195.625,4.237-1.281,4.6-4.177s-1.295-5.765-3.233-6.338c-1.779-.526-3.1.3-3.142,1.511-.013.368.01.751.01,1.139.07,2.624-3.02.747-5.426.786C474.489,219.555,474.405,225,478.114,224.56Z" transform="translate(-435.71 -199.081)" fill="#39008f"/>
      <path id="Path_497" data-name="Path 497" d="M477.26,262.3a4.427,4.427,0,0,1-1.212-.171,3.014,3.014,0,0,1-2.061-1.826c-1.4,1.434-2.317,4.252-2.343,8.721-.043,7.586-3.023,9.078-3.983,12.7a4.052,4.052,0,0,0-.1,1.884l-.023.06a5.121,5.121,0,0,1-2.4,2.189c-.545.188,1,1.139,1,1.139a6.484,6.484,0,0,1,3.214-1.632,4.721,4.721,0,0,0,2.974-.419c3.053-1.612,5.241-6.337,7.134-12.236,1.667-5.2,1.759-9.17.6-11.431A4.463,4.463,0,0,1,477.26,262.3Z" transform="translate(-427.851 -233.293)" fill="#ea687e"/>
      <path id="Path_498" data-name="Path 498" d="M331.157,245.281a17,17,0,0,0-23.231-1.5,3.158,3.158,0,0,0-.889,3.69l-1.479.461a.591.591,0,0,0-.223,1l1.6,1.5a.581.581,0,0,0,.966-.3l.279-1.251a3.534,3.534,0,0,0,4.274-.168,9.954,9.954,0,0,1,13.586.877,8.917,8.917,0,0,1-.819,12.99,9.953,9.953,0,0,1-13.585-.878,3.538,3.538,0,0,0-4.064-.791l-.3-1.33a.582.582,0,0,0-.966-.3l-1.6,1.5a.591.591,0,0,0,.222.995l1.219.38a3.163,3.163,0,0,0,.375,3.849,17,17,0,0,0,23.231,1.5A15.271,15.271,0,0,0,331.157,245.281Z" transform="translate(-304.134 -217.563)" fill="#39008f"/>
      <path id="Path_499" data-name="Path 499" d="M383.33,191.632c-.571-.057-.531.427-.817.98-.306.592-.63,1.117-.85,1.1-.235-.021.209-.925.133-1.557-.068-.571-.37-.8-.945-.848a43.48,43.48,0,0,0-5.47-.091c-.985.044-2.407-.036-2.894.365-.269.222-.3.752-.37,1.008-.077.281-.564.386-.506-.316.029-.358-.141-.654-.3-.65a7.531,7.531,0,0,0-1.536.224c-2.477.5-4.192,1.251-4.159,2.21.025.74.36,1.388,2.772,1.761,2.231.345,3.89.5,6.756,1.056a4.2,4.2,0,0,0,.779.093c.612-.022,1.031-1.117,1.06-1.662s.487-.229.516.143-.28,1.346-.12,1.676c.115.237.293.27.516.322,1.017.239,1.736.327,5.191,1.329C387.352,200.013,389.3,192.228,383.33,191.632Z" transform="translate(-351.225 -180.007)" fill="#ea687e"/>
      <path id="Path_500" data-name="Path 500" d="M312.166,189.362c1.412.113,2.076-.344,1.923-1.414-.037-.259-.071-.528-.1-.8.057-1.718,2.036-.775,3.7-1,1.809-.245,1.132-3.871-.89-3.155-2.208.781-2.836,1.8-3.207,1.21-.216-1.111-.541-1.935-1.148-1.988a3,3,0,0,0-3.128,3.225C309.306,187.509,310.754,189.249,312.166,189.362Z" transform="translate(-307.828 -173.094)" fill="#ea687e"/>
      <path id="Path_501" data-name="Path 501" d="M336.53,149.08a3.864,3.864,0,0,1,.8-3.11,4.561,4.561,0,0,1,1.8-1.353,6.216,6.216,0,0,0-2.981-.8c-1.97.116-3.525,2.987-3.97,4.645-.475,1.774-1.521,1.508-1.521.266s1.046-3.458,1.521-4.7-.559-1.334-.679-1.355a12.727,12.727,0,0,0-4.588.08c-1.924.458-3.958,2.96-4.434,4.734s-1.521,1.508-1.521.266a13.932,13.932,0,0,1,1.248-4.168c.147-.384.412-.866-.25-.965a9.229,9.229,0,0,0-5.349.532c-1.8.791-2.924,2.727-3.638,4.246-.786,1.675-1.521,1.508-1.521.266a11.769,11.769,0,0,1,1.009-3.795c.43-.888-2.636-.8-5.067.781a4.154,4.154,0,0,0-2.219,3.812,3.473,3.473,0,0,0,1.388,2.561,4.059,4.059,0,0,1,2.456-.825,2.331,2.331,0,0,1,2.328,1.676,7.093,7.093,0,0,1,2.769-.981,2.927,2.927,0,0,1,2.773,2.727,26.512,26.512,0,0,0,3.366-.3A77.765,77.765,0,0,1,337.3,152.8a3.273,3.273,0,0,0,2.152-.6A3.639,3.639,0,0,1,336.53,149.08Z" transform="translate(-304.631 -142.469)" fill="#39008f"/>
      <path id="Path_502" data-name="Path 502" d="M467.388,155.681a3.939,3.939,0,0,0,.573-5.119c-.8-1.171-.006-1.117.229-2.788a3.12,3.12,0,0,0-2.445-3.782c-2.674-.458-3.272.917-3.782.917-1.223,0-1.566-1.49-3.4-1.413-1.872.078-2.1,1.49-3.209,1.413-.83-.057-1.68-1.91-3.5-1.1s-.938,2.67-1.746,2.722a2.8,2.8,0,0,0-2.317,3.12,2.409,2.409,0,0,0,2.144,2.085c1.323.392,2.882-1.226,3.7-.153s.453,1.265,1.765,2.19c2.138,1.507,3.081-.651,3.784,1.274a3.713,3.713,0,0,0,1.337,1.836,1.762,1.762,0,0,1,.453,1.163c0,.487.269.974.86.933a5.162,5.162,0,0,1,3.031-.038,5.423,5.423,0,0,1,2.823,2.173,3.333,3.333,0,0,0,.688-2.6C468.082,156.766,466.385,156.482,467.388,155.681Z" transform="translate(-414.535 -143.258)" fill="#39008f"/>
      <path id="Path_503" data-name="Path 503" d="M469.2,186.48c-.616.158-1.255.325-1.824.463-.828.2-.294-1.149.478-2.127.332-.41.935-1.235,1.521-2.1a3.538,3.538,0,0,1-1.179-1.612,17.64,17.64,0,0,1-2.266,2.847c-.583.59-.617-.18-.37-.88.324-.917.71-1.877,1.07-2.863a2.622,2.622,0,0,1-1.855-.255c-.122.336-.264.684-.433,1.047-.969,2.073-1.5-.463-1.5-.463l-.766-3.377c-.739-.171-1.75.547-2.7.562a7.1,7.1,0,0,1,1.748,3.66,12.47,12.47,0,0,1-1.67,7.221c-.374.711.764,1.8,1.371,2.146a2.581,2.581,0,0,0,.91.317,3.317,3.317,0,0,1,3.123-2.821h.1a12.422,12.422,0,0,1,2.584.367,10.388,10.388,0,0,0,1.39.244v-.023c0-.142,0-.285-.007-.425-.006-.245-.012-.5,0-.762A2.987,2.987,0,0,1,469.2,186.48Z" transform="translate(-423.496 -169.191)" fill="#ea687e"/>
    </g>
    <g id="Group_375" data-name="Group 375" transform="translate(371.66 155.12)">
      <g id="Group_374" data-name="Group 374" transform="translate(0)">
        <path id="Path_504" data-name="Path 504" d="M303.915,419.354V397.4a5.684,5.684,0,0,1,1.522-4.325q1.442-1.362,4.727-1.362a8.172,8.172,0,0,1,1.281.08,8.941,8.941,0,0,1,1.362.08v4.406h-1.442a3.011,3.011,0,0,0-1.6.32,1.594,1.594,0,0,0-.4,1.282v1.442h3.445v1.2a2.669,2.669,0,0,1-2.644,2.724h-.8v16.1Z" transform="translate(-303.915 -391.714)" fill="#ea687e"/>
        <path id="Path_505" data-name="Path 505" d="M321.8,420.169a7.925,7.925,0,0,1-2.4-3.886,17.886,17.886,0,0,1-.721-5.088,16.09,16.09,0,0,1,.6-4.326,8.913,8.913,0,0,1,1.882-3.605,8.319,8.319,0,0,1,5.368-2.844,12.373,12.373,0,0,1,5.929.521,8.172,8.172,0,0,1,4.486,4.165,13.3,13.3,0,0,1,1.362,6.17,15.248,15.248,0,0,1-.561,4.406,11.274,11.274,0,0,1-1.441,3.124,8.009,8.009,0,0,1-4.888,3.285,10.9,10.9,0,0,1-5.328.121A9.323,9.323,0,0,1,321.8,420.169Zm3.846-14.1q-1.683,1.845-1.522,5.488t1.362,5.087a3.588,3.588,0,0,0,1.683,1.082,3.822,3.822,0,0,0,2.444.08,4.1,4.1,0,0,0,2.2-1.8,9.034,9.034,0,0,0,1.042-4.646,8.155,8.155,0,0,0-.921-4.327,4.175,4.175,0,0,0-2.123-1.842,3.9,3.9,0,0,0-2.4-.04A4.181,4.181,0,0,0,325.644,406.068Z" transform="translate(-308.63 -394.451)" fill="#ea687e"/>
        <path id="Path_506" data-name="Path 506" d="M353.038,420.169a7.921,7.921,0,0,1-2.4-3.886,17.866,17.866,0,0,1-.721-5.088,16.09,16.09,0,0,1,.6-4.326,8.921,8.921,0,0,1,1.882-3.605,8.319,8.319,0,0,1,5.368-2.844,12.372,12.372,0,0,1,5.929.521,8.172,8.172,0,0,1,4.486,4.165,13.3,13.3,0,0,1,1.362,6.17,15.274,15.274,0,0,1-.561,4.406,11.3,11.3,0,0,1-1.442,3.124,8.009,8.009,0,0,1-4.888,3.285,10.9,10.9,0,0,1-5.327.121A9.323,9.323,0,0,1,353.038,420.169Zm3.846-14.1q-1.683,1.845-1.522,5.488t1.362,5.087a3.588,3.588,0,0,0,1.683,1.082,3.822,3.822,0,0,0,2.444.08,4.1,4.1,0,0,0,2.2-1.8,9.042,9.042,0,0,0,1.041-4.646,8.155,8.155,0,0,0-.921-4.327,4.174,4.174,0,0,0-2.123-1.842,3.893,3.893,0,0,0-2.4-.04A4.18,4.18,0,0,0,356.884,406.068Z" transform="translate(-318.61 -394.451)" fill="#ea687e"/>
        <path id="Path_507" data-name="Path 507" d="M395.735,391.714h2.724a2.562,2.562,0,0,1,1.923.841,2.67,2.67,0,0,1,.8,1.883v15.623q0,5.69-3.285,7.691a13.446,13.446,0,0,1-7.13,2,12.624,12.624,0,0,1-4.086-.681,6.72,6.72,0,0,1-3.205-2.2q-2.324-2.962-2.323-8.091a13,13,0,0,1,2.323-8.092,7.813,7.813,0,0,1,9.695-2.323,7.621,7.621,0,0,1,2.563,2.485ZM386.6,408.539a8.355,8.355,0,0,0,1.2,4.887,3.977,3.977,0,0,0,3.445,1.683,3.9,3.9,0,0,0,3.365-1.683,8.816,8.816,0,0,0,1.122-4.887,7.719,7.719,0,0,0-1.2-4.566,4.184,4.184,0,0,0-3.445-1.6,3.821,3.821,0,0,0-3.285,1.684A7.345,7.345,0,0,0,386.6,408.539Z" transform="translate(-328.591 -391.714)" fill="#ea687e"/>
        <path id="Path_508" data-name="Path 508" d="M428.4,415.531h4.006a8.76,8.76,0,0,1-3.366,5.127,10.194,10.194,0,0,1-6.249,1.843,8.923,8.923,0,0,1-7.131-2.964q-2.564-2.885-2.564-8.252,0-5.126,2.484-8.012a8.929,8.929,0,0,1,7.13-2.964,9.6,9.6,0,0,1,7.451,2.884,10.988,10.988,0,0,1,2.082,4.086h-5.608a4.745,4.745,0,0,0-.8-1.2,3.849,3.849,0,0,0-2.964-1.121,3.907,3.907,0,0,0-2.885,1.121q-1.442,1.6-1.443,5.288t1.443,5.207a3.784,3.784,0,0,0,3.125,1.282,4.538,4.538,0,0,0,2.323-.561,1.113,1.113,0,0,0,.441-.28l.44-.44a3.512,3.512,0,0,1,.641-.641A2.215,2.215,0,0,1,428.4,415.531Z" transform="translate(-338.797 -394.46)" fill="#39008f"/>
        <path id="Path_509" data-name="Path 509" d="M446.995,420.169a7.923,7.923,0,0,1-2.4-3.886,17.891,17.891,0,0,1-.721-5.088,16.037,16.037,0,0,1,.6-4.326,8.92,8.92,0,0,1,1.882-3.605,8.314,8.314,0,0,1,5.367-2.844,12.372,12.372,0,0,1,5.929.521,8.172,8.172,0,0,1,4.487,4.165,13.317,13.317,0,0,1,1.362,6.17,15.271,15.271,0,0,1-.561,4.406,11.29,11.29,0,0,1-1.443,3.124,8,8,0,0,1-4.887,3.285,10.9,10.9,0,0,1-5.328.121A9.317,9.317,0,0,1,446.995,420.169Zm3.844-14.1q-1.681,1.845-1.521,5.488t1.362,5.087a3.587,3.587,0,0,0,1.683,1.082,3.817,3.817,0,0,0,2.442.08,4.1,4.1,0,0,0,2.2-1.8,9.031,9.031,0,0,0,1.041-4.646,8.143,8.143,0,0,0-.921-4.327,4.161,4.161,0,0,0-2.123-1.842,3.89,3.89,0,0,0-2.4-.04A4.183,4.183,0,0,0,450.839,406.068Z" transform="translate(-348.627 -394.451)" fill="#39008f"/>
        <path id="Path_510" data-name="Path 510" d="M494.4,401.015v12.5q0,5.69-2.964,7.451a12.466,12.466,0,0,1-6.49,1.762,12.863,12.863,0,0,1-6.289-1.923q-2.845-1.762-2.845-7.29v-12.5h5.609v13.619a3.345,3.345,0,0,0,1.121,2.8,4.033,4.033,0,0,0,2.564.882,4.2,4.2,0,0,0,2.6-.882,3.3,3.3,0,0,0,1.162-2.8v-10.9a2.688,2.688,0,0,1,.762-1.923,2.586,2.586,0,0,1,1.963-.8Z" transform="translate(-358.833 -394.686)" fill="#39008f"/>
        <path id="Path_511" data-name="Path 511" d="M506.231,422.326V411.991a13.212,13.212,0,0,1,.922-5.248,8.7,8.7,0,0,1,2.523-3.4,9.927,9.927,0,0,1,3.566-1.763,15.827,15.827,0,0,1,4.206-.561h.8V406.7h-1.842a4.694,4.694,0,0,0-3.445,1.121,4.818,4.818,0,0,0-1.121,3.526v10.976Z" transform="translate(-368.549 -394.686)" fill="#39008f"/>
        <path id="Path_512" data-name="Path 512" d="M536.277,419.392a41.835,41.835,0,0,1-5.728-.08q-3.084-.241-3.085-3.926V391.832h2.885a2.539,2.539,0,0,1,1.843.8,2.628,2.628,0,0,1,.8,1.923v3.6h3.284v1.121a2.589,2.589,0,0,1-.8,1.963,2.691,2.691,0,0,1-1.923.761h-.56v11.858q0,1.363,1.6,1.362h1.682Z" transform="translate(-375.333 -391.752)" fill="#39008f"/>
      </g>
    </g>
  </g>
</svg>
